<svg height="512" width="512" xmlns="http://www.w3.org/2000/svg">
    <path d="M391 144.699v76l-135 57.9-135-57.9v-76z" fill="#3d4566" />
    <path d="M391 144.699v76l-135 57.9v-133.9z" fill="#2e2e4d" />
    <path
        d="M458.5 354.5c0 20.7-16.8 37.5-37.5 37.5H59.801L16 377c8.401 0 15-6.599 15-15v-15c0-8.401-6.599-15-15-15l34.2-15H421c20.7 0 37.5 16.8 37.5 37.5z"
        fill="#f3f5f9" />
    <path d="M421 392H256v-75h165c20.7 0 37.5 16.8 37.5 37.5S441.7 392 421 392z" fill="#e1e6f0" />
    <path
        d="M481 354.5c0 29.099-23.401 52.5-52.5 52.5l-41.4 15H121l-37.5-15H16v-30h412.5c12.299 0 22.5-10.201 22.5-22.5S440.799 332 428.5 332H16v-30h195l7.5 15h15l7.5-15h187.5c29.099 0 52.5 23.401 52.5 52.5z"
        fill="#ffdf40" />
    <path
        d="M481 354.5c0 29.099-23.401 52.5-52.5 52.5l-41.4 15H256v-45h172.5c12.299 0 22.5-10.201 22.5-22.5S440.799 332 428.5 332H256v-30h172.5c29.099 0 52.5 23.401 52.5 52.5z"
        fill="#ffbe40" />
    <path
        d="M496 482l-42.599 15H53.5v-75h416.4l26.1 15c-8.401 0-15 6.599-15 15v15c0 8.401 6.599 15 15 15z"
        fill="#f3f5f9" />
    <path
        d="M496 482l-42.599 15H256v-75h213.9l26.1 15c-8.401 0-15 6.599-15 15v15c0 8.401 6.599 15 15 15z"
        fill="#e1e6f0" />
    <path
        d="M61 459.5c0 12.299 10.201 22.5 22.5 22.5H496v30H83.5C54.401 512 31 488.599 31 459.5S54.401 407 83.5 407H496v30H83.5C71.201 437 61 447.201 61 459.5z"
        fill="#82e1d8" />
    <path d="M421 118.861h30V272h-30z" fill="#ffbe40" />
    <path d="M256 407h240v30H256z" fill="#6dcdd6" />
    <path d="M211 302h30v150h-30z" fill="#ff98cd" />
    <path d="M256 0L7.899 106 256 212.199 504.101 106z" fill="#4d5e80" />
    <path d="M504.101 106L256 212.199V0z" fill="#3d4566" />
    <path d="M256 482h240v30H256z" fill="#6dcdd6" />
</svg>
