<svg height="512pt" viewBox="0 0 512 511" width="512pt" xmlns="http://www.w3.org/2000/svg">
    <path
        d="m297.058594 383.605469c0-22.601563-18.335938-40.921875-40.957032-40.921875-22.621093 0-40.957031 18.320312-40.957031 40.921875 0 22.601562 18.335938 40.921875 40.957031 40.921875 22.621094 0 40.957032-18.320313 40.957032-40.921875zm0 0"
        fill="#f0c33c" />
    <path
        d="m256.101562 342.683594c-7.265624 0-14.085937 1.898437-20 5.210937 12.503907 7.007813 20.957032 20.367188 20.957032 35.710938 0 15.339843-8.453125 28.703125-20.957032 35.707031 5.914063 3.316406 12.734376 5.214844 20 5.214844 22.621094 0 40.957032-18.324219 40.957032-40.921875 0-22.601563-18.335938-40.921875-40.957032-40.921875zm0 0"
        fill="#d9a60d" />
    <path
        d="m196.863281 330.71875c-5.085937 0-10.175781-1.878906-14.144531-5.667969-8.179688-7.804687-8.472656-20.757812-.65625-28.929687 19.507812-20.398438 45.804688-31.632813 74.039062-31.632813l44.425782 59.902344c-11.710938-12.242187-27.488282-18.980469-44.425782-18.980469-16.941406 0-32.71875 6.742188-44.429687 18.984375-4.019531 4.207031-9.410156 6.324219-14.808594 6.324219zm0 0"
        fill="#f0c33c" />
    <path
        d="m152.4375 268.78125c-5.082031 0-10.175781-1.882812-14.144531-5.667969-8.175781-7.804687-8.472657-20.757812-.660157-28.929687 31.21875-32.640625 73.292969-50.617188 118.46875-50.617188 45.101563 0 87.121094 17.925782 118.328126 50.472656 7.824218 8.164063 7.542968 21.117188-.625 28.933594-8.167969 7.8125-21.132813 7.539063-28.953126-.625-23.40625-24.414062-54.925781-37.859375-88.75-37.859375-33.882812 0-65.441406 13.484375-88.855468 37.96875-4.019532 4.203125-9.410156 6.324219-14.808594 6.324219zm0 0"
        fill="#f0c33c" />
    <path
        d="m374.429688 234.039062c-31.203126-32.546874-73.226563-50.472656-118.328126-50.472656-6.746093 0-13.417968.410156-20 1.199219 37.425782 4.496094 71.789063 21.59375 98.328126 49.273437 5.835937 6.089844 7.15625 14.839844 4.066406 22.136719 2.179687 1.972657 4.300781 4.027344 6.355468 6.171875 7.824219 8.164063 20.785157 8.4375 28.957032.625 8.164062-7.816406 8.445312-20.769531.621094-28.933594zm0 0"
        fill="#d9a60d" />
    <path
        d="m108.015625 208.203125c-5.085937 0-10.179687-1.878906-14.148437-5.667969-8.175782-7.804687-8.472657-20.757812-.65625-28.925781 42.925781-44.882813 100.773437-69.601563 162.890624-69.601563 62.011719 0 119.792969 24.648438 162.703126 69.402344 7.824218 8.160156 7.542968 21.113282-.625 28.929688-8.164063 7.816406-21.128907 7.542968-28.953126-.621094-35.113281-36.621094-82.386718-56.789062-133.125-56.789062-50.824218 0-98.15625 20.222656-133.28125 56.949218-4.019531 4.207032-9.410156 6.324219-14.804687 6.324219zm0 0"
        fill="#f0c33c" />
    <path
        d="m418.804688 173.410156c-42.90625-44.753906-100.691407-69.402344-162.703126-69.402344-6.722656 0-13.390624.304688-20.003906.878907 54.363282 4.71875 104.449219 28.621093 142.707032 68.527343 5.804687 6.054688 7.140624 14.75 4.105468 22.027344 2.144532 2.039063 4.253906 4.128906 6.316406 6.277344 7.824219 8.164062 20.789063 8.441406 28.957032.625 8.167968-7.820312 8.445312-20.773438.621094-28.933594zm0 0"
        fill="#d9a60d" />
    <path
        d="m256 .5c-141.386719 0-256 114.515625-256 255.773438 0 141.261718 114.613281 255.773437 256 255.773437s256-114.511719 256-255.773437c0-141.257813-114.613281-255.773438-256-255.773438zm-216.117188 255.773438c0-52.304688 18.613282-100.261719 49.585938-137.625l304.28125 304.011718c-37.398438 30.941406-85.398438 49.539063-137.75 49.539063-119.359375 0-216.117188-96.671875-216.117188-215.925781zm382.191407 138.167968-304.363281-304.09375c37.476562-31.214844 85.683593-50 138.289062-50 119.359375 0 216.117188 96.671875 216.117188 215.925782 0 52.558593-18.800782 100.726562-50.042969 138.167968zm0 0"
        fill="#e5554e" />
    <path
        d="m256 .5c-6.710938 0-13.359375.261719-19.941406.769531 130.183594 10.019531 233.082031 117.335938 235.984375 249.285157.097656 3.71875.101562 7.441406.003906 11.164062-2.765625 132.074219-105.710937 239.53125-235.988281 249.5625 6.578125.503906 13.230468.765625 19.941406.765625 141.386719 0 256-114.511719 256-255.773437 0-141.257813-114.613281-255.773438-256-255.773438zm0 0"
        fill="#c62430" />
</svg>