<svg viewBox="0 0 24 24" xmlns="http://www.w3.org/2000/svg">
    <g fill="none">
        <circle cx="12" cy="12" r="2.43" stroke="#1a1a1a" stroke-linecap="round"
            stroke-linejoin="round" stroke-width="1.5" />
        <path
            d="m19.45 13.13a1.22 1.22 0 0 1 .44 1.65l-1.54 2.67a1.21 1.21 0 0 1 -1.65.44 1.17 1.17 0 0 0 -1.2 0l-.17.1a1.2 1.2 0 0 0 -.6 1 1.21 1.21 0 0 1 -1.21 1.21h-3.07a1.21 1.21 0 0 1 -1.2-1.2 1.19 1.19 0 0 0 -.61-1l-.16-.09a1.19 1.19 0 0 0 -1.21 0 1.2 1.2 0 0 1 -1.64-.44l-1.55-2.68a1.22 1.22 0 0 1 .44-1.65 1.2 1.2 0 0 0 .6-1.05v-.16a1.2 1.2 0 0 0 -.6-1.05 1.22 1.22 0 0 1 -.44-1.65l1.55-2.69a1.2 1.2 0 0 1 1.64-.44 1.19 1.19 0 0 0 1.21 0l.16-.1a1.19 1.19 0 0 0 .61-1 1.21 1.21 0 0 1 1.2-1.21h3.09a1.21 1.21 0 0 1 1.21 1.21 1.2 1.2 0 0 0 .6 1l.17.1a1.17 1.17 0 0 0 1.2 0 1.21 1.21 0 0 1 1.65.44l1.54 2.67a1.22 1.22 0 0 1 -.44 1.65 1.23 1.23 0 0 0 -.6 1.05v.16a1.23 1.23 0 0 0 .58 1.06z"
            stroke="#1a1a1a" stroke-linecap="round" stroke-linejoin="round" stroke-width="1.5" />
        <path d="m0 0h24v24h-24z" />
    </g>
</svg>