<svg viewBox="0 0 29.23 16.52" xmlns="http://www.w3.org/2000/svg">
    <path
        d="m22.88.4a3.54 3.54 0 0 0 -3.46 3.6 3.56 3.56 0 0 0 2.9 3.56 2.83 2.83 0 0 0 1.06 0 3.56 3.56 0 0 0 2.97-3.56 3.54 3.54 0 0 0 -3.47-3.6zm0 6.82a3.15 3.15 0 0 1 -3.06-3.22 3.07 3.07 0 1 1 6.18 0 3.15 3.15 0 0 1 -3.12 3.22z"
        fill="#fff" />
    <path
        d="m22.88 0a3.94 3.94 0 0 0 -3.88 4 4 4 0 0 0 2.39 3.7 3.19 3.19 0 0 0 .91.27 3.27 3.27 0 0 0 .54 0 3.31 3.31 0 0 0 .55 0 3.54 3.54 0 0 0 .91-.27 4 4 0 0 0 2.45-3.7 3.94 3.94 0 0 0 -3.87-4zm0 7.22a3.15 3.15 0 0 1 -3.06-3.22 3.07 3.07 0 1 1 6.18 0 3.15 3.15 0 0 1 -3.12 3.22z"
        fill="#1a1a1a" />
    <path
        d="m28.67 11.83a6.37 6.37 0 0 0 -5.23-3.83 5 5 0 0 0 -1.09 0 6.23 6.23 0 0 0 -4 1.93 3.88 3.88 0 0 0 -.26.31 2.51 2.51 0 0 0 -.25.32 2.7 2.7 0 0 1 .33.22 6.57 6.57 0 0 1 2.14 2.65 1.53 1.53 0 0 1 .13.76 1.34 1.34 0 0 1 -.07.4h6.54a2 2 0 0 0 1.76-2.76zm-.5 1.65a1.5 1.5 0 0 1 -1.25.69h-5.67a2.24 2.24 0 0 0 -.2-1.08 7.17 7.17 0 0 0 -2.35-2.94 5.84 5.84 0 0 1 4.18-1.8 6 6 0 0 1 5.42 3.65 1.58 1.58 0 0 1 -.13 1.48z"
        fill="#fff" />
    <path
        d="m29 11.67a6.86 6.86 0 0 0 -4.68-4 9.07 9.07 0 0 0 -.91-.14h-.53-.53a8.46 8.46 0 0 0 -.9.14 6.69 6.69 0 0 0 -3.45 2.03 4.12 4.12 0 0 0 -.28.31l-.25.32a2.39 2.39 0 0 1 .34.21 2.7 2.7 0 0 1 .33.22l.25-.32.27-.29a5.84 5.84 0 0 1 4.18-1.8 6 6 0 0 1 5.46 3.65 1.58 1.58 0 0 1 -.13 1.49 1.5 1.5 0 0 1 -1.25.69h-6.47a1.34 1.34 0 0 1 -.07.4 1.62 1.62 0 0 1 -.19.4h6.73a2.29 2.29 0 0 0 1.92-1.05 2.4 2.4 0 0 0 .16-2.26z"
        fill="#1a1a1a" />
    <path
        d="m6.35.4a3.54 3.54 0 0 0 -3.47 3.6 3.56 3.56 0 0 0 2.91 3.57 2.47 2.47 0 0 0 .54 0 2.32 2.32 0 0 0 .53 0 3.56 3.56 0 0 0 2.95-3.57 3.54 3.54 0 0 0 -3.46-3.6zm0 6.82a3.15 3.15 0 0 1 -3.07-3.22 3.15 3.15 0 0 1 3.07-3.2 3.14 3.14 0 0 1 3.06 3.2 3.14 3.14 0 0 1 -3.06 3.22z"
        fill="#fff" />
    <path
        d="m6.35 0a4 4 0 0 0 -3.87 4 4 4 0 0 0 2.4 3.7 3.43 3.43 0 0 0 .92.3 3.31 3.31 0 0 0 .55 0 3.31 3.31 0 0 0 .55 0 3.43 3.43 0 0 0 .91-.27 4 4 0 0 0 2.4-3.73 3.94 3.94 0 0 0 -3.86-4zm0 7.22a3.15 3.15 0 0 1 -3.07-3.22 3.15 3.15 0 0 1 3.07-3.2 3.14 3.14 0 0 1 3.06 3.2 3.14 3.14 0 0 1 -3.06 3.22z"
        fill="#1a1a1a" />
    <path
        d="m11.1 10.18-.27-.31a6.21 6.21 0 0 0 -3.93-1.87 5.06 5.06 0 0 0 -1.1 0 6.36 6.36 0 0 0 -5.24 3.83 2 2 0 0 0 1.75 2.74h6.44a1.34 1.34 0 0 1 -.07-.4 1.53 1.53 0 0 1 .13-.76 6.5 6.5 0 0 1 2.2-2.7l.34-.22a3.76 3.76 0 0 0 -.25-.31zm-8.79 4a1.51 1.51 0 0 1 -1.25-.69 1.58 1.58 0 0 1 -.13-1.49 6 6 0 0 1 5.42-3.65 5.8 5.8 0 0 1 4.14 1.76 7.3 7.3 0 0 0 -2.41 3 2.24 2.24 0 0 0 -.2 1.08z"
        fill="#fff" />
    <path
        d="m11.44 10a2.61 2.61 0 0 0 -.27-.31 6.78 6.78 0 0 0 -3.35-2 8.65 8.65 0 0 0 -.91-.14h-.53-.54a8.87 8.87 0 0 0 -.9.14 6.84 6.84 0 0 0 -4.68 4 2.37 2.37 0 0 0 .19 2.25 2.3 2.3 0 0 0 1.86 1.06h6.63a1.62 1.62 0 0 1 -.19-.4 1.34 1.34 0 0 1 -.07-.4h-6.37a1.51 1.51 0 0 1 -1.25-.69 1.58 1.58 0 0 1 -.13-1.51 6 6 0 0 1 5.42-3.65 5.8 5.8 0 0 1 4.14 1.76l.27.29a3.76 3.76 0 0 1 .25.31l.34-.22.34-.2a1.79 1.79 0 0 0 -.25-.29z"
        fill="#1a1a1a" />
    <path
        d="m14.56 1.27a3.73 3.73 0 0 0 -3.66 3.79 3.73 3.73 0 0 0 3.1 3.74 2.63 2.63 0 0 0 .49 0 2.74 2.74 0 0 0 .5 0 3.74 3.74 0 0 0 3.15-3.74 3.73 3.73 0 0 0 -3.58-3.79zm0 7.17a3.33 3.33 0 0 1 -3.26-3.38 3.27 3.27 0 1 1 6.53 0 3.33 3.33 0 0 1 -3.27 3.38z"
        fill="#fff" />
    <path
        d="m14.56.87a4.13 4.13 0 0 0 -4.06 4.19 4.17 4.17 0 0 0 2.56 3.88 3.47 3.47 0 0 0 1 .26 3.27 3.27 0 0 0 1 0 3.54 3.54 0 0 0 1-.26 4.17 4.17 0 0 0 2.57-3.88 4.13 4.13 0 0 0 -4.07-4.19zm0 7.57a3.33 3.33 0 0 1 -3.26-3.38 3.27 3.27 0 1 1 6.53 0 3.33 3.33 0 0 1 -3.27 3.38z"
        fill="#1a1a1a" />
    <path
        d="m20.69 13.25a6.92 6.92 0 0 0 -2.26-2.81 2.7 2.7 0 0 0 -.33-.22 2.5 2.5 0 0 0 -.35-.21 6.55 6.55 0 0 0 -2.67-.81h-.51-.51a6.45 6.45 0 0 0 -2.6.78 2.33 2.33 0 0 0 -.34.2l-.34.22a7 7 0 0 0 -2.32 2.85 1.87 1.87 0 0 0 -.16.92 1.34 1.34 0 0 0 .06.4 1.49 1.49 0 0 0 .15.4 2 2 0 0 0 1.8 1.15h8.55a2 2 0 0 0 1.79-1.12 1.9 1.9 0 0 0 .14-.4 1.34 1.34 0 0 0 .06-.4 1.87 1.87 0 0 0 -.16-.95zm-.5 1.75a1.62 1.62 0 0 1 -1.35.75h-8.55a1.65 1.65 0 0 1 -1.54-1.15 1.34 1.34 0 0 1 -.07-.4 1.53 1.53 0 0 1 .13-.76 6.5 6.5 0 0 1 2.2-2.7l.34-.22.34-.2a6.13 6.13 0 0 1 2.87-.71 6.06 6.06 0 0 1 2.94.75 2.39 2.39 0 0 1 .34.21 2.7 2.7 0 0 1 .33.22 6.57 6.57 0 0 1 2.14 2.65 1.53 1.53 0 0 1 .13.76 1.34 1.34 0 0 1 -.07.4 1.62 1.62 0 0 1 -.18.4z"
        fill="#fff" />
    <path
        d="m21.05 13.09a7.17 7.17 0 0 0 -2.35-2.94l-.34-.24-.36-.21a7.59 7.59 0 0 0 -2-.76 6.43 6.43 0 0 0 -1-.14h-.5-.49a6.3 6.3 0 0 0 -1 .14 7 7 0 0 0 -1.89.73l-.34.2-.34.24a7.3 7.3 0 0 0 -2.41 3 2.24 2.24 0 0 0 -.2 1.08 1.83 1.83 0 0 0 0 .4 1.52 1.52 0 0 0 .12.4 2.58 2.58 0 0 0 .22.44 2.43 2.43 0 0 0 2 1.11h8.55a2.43 2.43 0 0 0 2-1.11 2.58 2.58 0 0 0 .22-.44 1.52 1.52 0 0 0 .12-.4 1.83 1.83 0 0 0 .05-.4 2.24 2.24 0 0 0 -.06-1.1zm-.67 1.48a1.65 1.65 0 0 1 -1.54 1.15h-8.55a1.65 1.65 0 0 1 -1.54-1.15 1.34 1.34 0 0 1 -.07-.4 1.53 1.53 0 0 1 .13-.76 6.5 6.5 0 0 1 2.2-2.7l.34-.22.34-.2a6.13 6.13 0 0 1 2.87-.71 6.06 6.06 0 0 1 2.94.75 2.39 2.39 0 0 1 .34.21 2.7 2.7 0 0 1 .33.22 6.57 6.57 0 0 1 2.14 2.65 1.53 1.53 0 0 1 .13.76 1.34 1.34 0 0 1 -.06.4z"
        fill="#1a1a1a" />
</svg>