<svg viewBox="0 0 24 24" xmlns="http://www.w3.org/2000/svg">
    <g fill="none">
        <path
            d="m13 4.74 1.65 3.35a1.16 1.16 0 0 0 .88.63l3.68.54a1.16 1.16 0 0 1 .65 2l-2.67 2.6a1.19 1.19 0 0 0 -.34 1l.63 3.67a1.16 1.16 0 0 1 -1.68 1.23l-3.26-1.76a1.15 1.15 0 0 0 -1.08 0l-3.3 1.74a1.16 1.16 0 0 1 -1.68-1.23l.63-3.67a1.19 1.19 0 0 0 -.34-1l-2.67-2.6a1.16 1.16 0 0 1 .65-2l3.68-.54a1.16 1.16 0 0 0 .88-.63l1.69-3.33a1.16 1.16 0 0 1 2 0z"
            stroke="#1a1a1a" stroke-linecap="round" stroke-linejoin="round" stroke-width="1.5" />
        <path d="m0 0h24v24h-24z" />
    </g>
</svg>