<svg viewBox="0 0 24.17 20.5" xmlns="http://www.w3.org/2000/svg">
    <path
        d="m10.18.5a4.2 4.2 0 0 0 -4.18 4.24 4.16 4.16 0 1 0 8.32 0 4.2 4.2 0 0 0 -4.14-4.24zm0 8a3.71 3.71 0 0 1 -3.66-3.76 3.66 3.66 0 1 1 7.32 0 3.71 3.71 0 0 1 -3.66 3.74z"
        fill="#fff" />
    <path
        d="m10.18 0a4.71 4.71 0 0 0 -4.66 4.74 4.66 4.66 0 1 0 9.32 0 4.71 4.71 0 0 0 -4.66-4.74zm0 8.48a3.71 3.71 0 0 1 -3.66-3.74 3.66 3.66 0 1 1 7.32 0 3.71 3.71 0 0 1 -3.66 3.74z" />
    <path d="m13.84 4.74a3.66 3.66 0 1 1 -7.32 0 3.66 3.66 0 1 1 7.32 0z" fill="none" />
    <path
        d="m9.79 14.1-3.48-.44a.82.82 0 0 0 -.65.2.91.91 0 0 0 -.18.21 2.5 2.5 0 0 1 .25.41.48.48 0 0 1 .53-.48l3.48.44a.4.4 0 0 1 .18.07.76.76 0 0 1 .23-.3.88.88 0 0 0 -.36-.11zm0 0-3.48-.44a.82.82 0 0 0 -.65.2.91.91 0 0 0 -.18.21 2.5 2.5 0 0 1 .25.41.48.48 0 0 1 .53-.48l3.48.44a.4.4 0 0 1 .18.07.76.76 0 0 1 .23-.3.88.88 0 0 0 -.36-.11zm0 0-3.48-.44a.82.82 0 0 0 -.65.2.91.91 0 0 0 -.18.21 2.5 2.5 0 0 1 .25.41.48.48 0 0 1 .53-.48l3.48.44a.4.4 0 0 1 .18.07.76.76 0 0 1 .23-.3.88.88 0 0 0 -.36-.11zm6.69 4a2.35 2.35 0 0 1 -1.48-1.91v-.61a2.35 2.35 0 0 1 1.19-1.77l-.19-.29a3.33 3.33 0 0 0 -.25-.28 7.51 7.51 0 0 0 -11.1 0 2.09 2.09 0 0 0 -.24.28 2.17 2.17 0 0 0 -.24.29 2.27 2.27 0 0 1 .4.29 2.36 2.36 0 0 1 .77 1.75 2.33 2.33 0 0 1 -1.47 2.15 2.09 2.09 0 0 1 -.49.13 3 3 0 0 0 .17.36 1.35 1.35 0 0 0 .19.33 2 2 0 0 0 1.58 1.18h9.68a2 2 0 0 0 1.59-1.11c.06-.1.12-.22.18-.34a3 3 0 0 0 .17-.36 3.89 3.89 0 0 1 -.46-.13zm-6.3-6.76a7 7 0 0 1 5.13 2.24 2.44 2.44 0 0 0 -.46.5.65.65 0 0 0 -.15-.18.81.81 0 0 0 -.65-.2l-3.48.41a.87.87 0 0 0 -.42.17.88.88 0 0 0 -.36-.14l-3.48-.44a.82.82 0 0 0 -.65.2.91.91 0 0 0 -.18.21 2.47 2.47 0 0 0 -.48-.55 7.09 7.09 0 0 1 5.18-2.26zm-4.86 8.15c-.49 0-.89-.48-1.1-.79a3 3 0 0 0 1.1-.81v1.37a.85.85 0 0 0 0 .23zm4.43.24a.11.11 0 0 1 -.07 0l-2.85-.26-.66-.06c-.06 0-.12-.07-.11-.17v-4.69c0-.06 0-.11.13-.17l3.47.44a.17.17 0 0 1 .14.18v4.6a.22.22 0 0 1 -.05.13zm.93 0h-.07a.18.18 0 0 1 -.06-.14v-4.59c0-.1.06-.17.11-.17l3.54-.4a.2.2 0 0 1 .06.15v1a1.37 1.37 0 0 0 0 .29 3 3 0 0 0 0 .31v3.05c0 .1-.06.17-.11.17l-.66.06zm4.32-.24a.85.85 0 0 0 0-.23v-1.32a3.22 3.22 0 0 0 1.08.78 1.51 1.51 0 0 1 -1.08.77zm-5.21-5.39-3.48-.44a.82.82 0 0 0 -.65.2.91.91 0 0 0 -.18.21 2.5 2.5 0 0 1 .25.41.48.48 0 0 1 .53-.48l3.48.44a.4.4 0 0 1 .18.07.76.76 0 0 1 .23-.3.88.88 0 0 0 -.36-.11zm0 0-3.48-.44a.82.82 0 0 0 -.65.2.91.91 0 0 0 -.18.21 2.5 2.5 0 0 1 .25.41.48.48 0 0 1 .53-.48l3.48.44a.4.4 0 0 1 .18.07.76.76 0 0 1 .23-.3.88.88 0 0 0 -.36-.11z"
        fill="#fff" />
    <path
        d="m17.28 18.2h-.31a3.89 3.89 0 0 1 -.49-.12 3.54 3.54 0 0 1 -.16.34 2.4 2.4 0 0 1 -.16.27 1.51 1.51 0 0 1 -1.09.77h-1.5l-2.85.26h-.07a.18.18 0 0 1 -.06-.14v-.1h-.79v.1a.22.22 0 0 1 -.05.14.11.11 0 0 1 -.07 0l-2.85-.26h-1.51c-.49 0-.89-.48-1.1-.79a2.75 2.75 0 0 1 -.22-.29 3.54 3.54 0 0 1 -.13-.38 2.09 2.09 0 0 1 -.49.13 2 2 0 0 1 -.35 0h-.17c.05.13.1.26.16.39l.18.36c0 .1.11.19.16.27a2.42 2.42 0 0 0 2 1.28h9.64a2.41 2.41 0 0 0 2-1.28c.05-.08.11-.17.16-.27s.12-.24.18-.36.11-.26.16-.39zm-.84-4.89a3.88 3.88 0 0 0 -.26-.31 8 8 0 0 0 -12 0l-.26.3-.24.31a2.55 2.55 0 0 1 .48.2 2.27 2.27 0 0 1 .4.29 3.11 3.11 0 0 1 .23-.28 2.18 2.18 0 0 1 .21-.26 7 7 0 0 1 10.29 0 3.45 3.45 0 0 1 .26.28l.23.28a2.34 2.34 0 0 1 .41-.29 2 2 0 0 1 .48-.19c-.06-.12-.14-.23-.23-.33zm1.23 2.08-.21.24a.37.37 0 0 0 0 .53.38.38 0 0 0 .24.09.1.1 0 0 0 .07 0 2.9 2.9 0 0 0 -.1-.86z" />
    <path
        d="m5.34 14.54a2.53 2.53 0 0 0 -.57-.69 2.25 2.25 0 0 0 -.39-.3 2.62 2.62 0 0 0 -.48-.22 2.53 2.53 0 0 0 -.9-.16 2.71 2.71 0 0 0 0 5.41 3 3 0 0 0 .52 0 3.37 3.37 0 0 0 .48-.2 2.66 2.66 0 0 0 1.29-1.14 2.62 2.62 0 0 0 .37-1.36 2.69 2.69 0 0 0 -.32-1.34zm-1.47 3.46a2.09 2.09 0 0 1 -.49.13 2 2 0 0 1 -.35 0h-.17a2.33 2.33 0 0 1 .14-4.59 2.18 2.18 0 0 1 .63.09 2.55 2.55 0 0 1 .48.2 2.27 2.27 0 0 1 .4.29 2.36 2.36 0 0 1 .77 1.75 2.33 2.33 0 0 1 -1.41 2.13z"
        fill="#fff" />
    <path
        d="m5.73 14.48a2.5 2.5 0 0 0 -.25-.41 2.47 2.47 0 0 0 -.48-.51 1.9 1.9 0 0 0 -.4-.3 2 2 0 0 0 -.44-.26 2.85 2.85 0 0 0 -1.16-.21 3.08 3.08 0 0 0 0 6.21h.2a2.52 2.52 0 0 0 .54-.08 2.7 2.7 0 0 0 .48-.16 3 3 0 0 0 1.1-.81 3.39 3.39 0 0 0 .38-.53 3.12 3.12 0 0 0 0-2.85zm-2.73 3.72h-.14a2.33 2.33 0 0 1 .14-4.66 2.18 2.18 0 0 1 .63.09 2.55 2.55 0 0 1 .48.2 2.27 2.27 0 0 1 .4.29 2.36 2.36 0 0 1 .77 1.75 2.33 2.33 0 0 1 -1.41 2.13 2.09 2.09 0 0 1 -.49.13 2 2 0 0 1 -.38.07z" />
    <path
        d="m15 15.87v.32-.61a2.64 2.64 0 0 0 0 .29zm0 0v.32-.61a2.64 2.64 0 0 0 0 .29zm0 0v.32-.61a2.64 2.64 0 0 0 0 .29zm0 0v.32-.61a2.64 2.64 0 0 0 0 .29zm0 0v.32-.61a2.64 2.64 0 0 0 0 .29zm4.5-1.48a2.64 2.64 0 0 0 -.49-.57 2.57 2.57 0 0 0 -1.73-.65 2.64 2.64 0 0 0 -.84.14 2.81 2.81 0 0 0 -.47.21 2.32 2.32 0 0 0 -.4.3 2.67 2.67 0 0 0 -.92 1.73v.09a1.79 1.79 0 0 0 0 .23v.35a2.64 2.64 0 0 0 .35 1.07 2.69 2.69 0 0 0 1.29 1.11 3.36 3.36 0 0 0 .48.14 3.73 3.73 0 0 0 .48 0 2.69 2.69 0 0 0 2.61-2.71 2.66 2.66 0 0 0 -.36-1.44zm-2 3.8h-.21-.31a3.89 3.89 0 0 1 -.49-.12 2.35 2.35 0 0 1 -1.49-1.88v-.61a2.35 2.35 0 0 1 1.19-1.77 2 2 0 0 1 .48-.19 2.33 2.33 0 0 1 .59-.08 2.25 2.25 0 0 1 1.49.56l-1.1 1.29-.21.24a.37.37 0 0 0 0 .53.38.38 0 0 0 .24.09.1.1 0 0 0 .07 0 .31.31 0 0 0 .22-.12l1.21-1.42a2.34 2.34 0 0 1 .32 1.18 2.31 2.31 0 0 1 -2.01 2.3zm-2.5-2.32v.32-.61a2.64 2.64 0 0 0 0 .29zm0 0v.32-.61a2.64 2.64 0 0 0 0 .29zm0 0v.32-.61a2.64 2.64 0 0 0 0 .29zm0 0v.32-.61a2.64 2.64 0 0 0 0 .29z"
        fill="#fff" />
    <path
        d="m19.75 14.1a2.67 2.67 0 0 0 -.5-.56 2.94 2.94 0 0 0 -2-.75 3.07 3.07 0 0 0 -1.1.21 2.51 2.51 0 0 0 -.46.24 2 2 0 0 0 -.41.3 2.44 2.44 0 0 0 -.46.5 1.69 1.69 0 0 0 -.23.36 3 3 0 0 0 -.35 1.15 1.37 1.37 0 0 0 0 .29 3 3 0 0 0 0 .31 3 3 0 0 0 .39 1.19 2.29 2.29 0 0 0 .38.54 3.22 3.22 0 0 0 1.08.78 4.16 4.16 0 0 0 .5.16 3.07 3.07 0 0 0 .53.06h.13a3.06 3.06 0 0 0 3-3.08 3 3 0 0 0 -.5-1.7zm-2.26 4.09h-.21-.31a3.89 3.89 0 0 1 -.49-.12 2.35 2.35 0 0 1 -1.48-1.88c0-.1 0-.21 0-.32a2.64 2.64 0 0 1 0-.29 2.35 2.35 0 0 1 1.19-1.77 2 2 0 0 1 .48-.19 2.33 2.33 0 0 1 .59-.08 2.25 2.25 0 0 1 1.49.56 2.22 2.22 0 0 1 .47.59 2.34 2.34 0 0 1 .32 1.18 2.31 2.31 0 0 1 -2.05 2.32z" />
    <path
        d="m24.08 9-4.33 5.1-.25.29-.26.3-1.24 1.42a.31.31 0 0 1 -.22.12.1.1 0 0 1 -.07 0 .38.38 0 0 1 -.24-.09.37.37 0 0 1 0-.53l.21-.24 1.1-1.29.24-.28.24-.28 4.26-5a.39.39 0 0 1 .53 0 .37.37 0 0 1 .03.48z" />
    <path
        d="m9.92 14.54a.4.4 0 0 0 -.18-.07l-3.48-.47a.48.48 0 0 0 -.53.45.22.22 0 0 0 0 .08v2.77 1.9a.46.46 0 0 0 .06.23.48.48 0 0 0 .39.32l2 .18 1.54.14a.45.45 0 0 0 .28-.07.27.27 0 0 0 0 0 .57.57 0 0 0 .17-.4v-4.6a.54.54 0 0 0 -.25-.46zm-.12 5.05a.22.22 0 0 1 -.05.14.11.11 0 0 1 -.07 0l-2.85-.26-.66-.06c-.06 0-.12-.07-.11-.17v-4.69c0-.06 0-.11.13-.17l3.47.44a.17.17 0 0 1 .14.18z"
        fill="#fff" />
    <path
        d="m10.41 14.53a.8.8 0 0 0 -.26-.29.88.88 0 0 0 -.36-.14l-3.48-.44a.82.82 0 0 0 -.65.2.91.91 0 0 0 -.18.21.83.83 0 0 0 -.14.46v2.67 2a.85.85 0 0 0 0 .23.83.83 0 0 0 .31.5.8.8 0 0 0 .45.19l3.4.31h.34a.81.81 0 0 0 .34-.15l.07-.06a.72.72 0 0 0 .17-.22.21.21 0 0 0 0-.06.9.9 0 0 0 .09-.4v-4.54a.81.81 0 0 0 -.1-.47zm-.61 5.06a.22.22 0 0 1 -.05.14.11.11 0 0 1 -.07 0l-2.85-.26-.66-.06c-.06 0-.12-.07-.11-.17v-4.69c0-.06 0-.11.13-.17l3.47.44a.17.17 0 0 1 .14.18z" />
    <path
        d="m14.66 17.4v-2.84a.77.77 0 0 0 0-.15.5.5 0 0 0 -.53-.37l-3.47.41a.4.4 0 0 0 -.21.09.55.55 0 0 0 -.23.46v4.6a.56.56 0 0 0 .16.4l.08.06a.47.47 0 0 0 .29.07l1.5-.13 2-.18a.49.49 0 0 0 .4-.32.46.46 0 0 0 .05-.23zm-4 2.35h-.07a.18.18 0 0 1 -.06-.14v-4.61c0-.1.06-.17.11-.17l3.54-.4a.2.2 0 0 1 .06.15v1a1.37 1.37 0 0 0 0 .29 3 3 0 0 0 0 .31v3.05c0 .1-.06.17-.11.17l-.66.06z"
        fill="#fff" />
    <path
        d="m15 17.94v-3.38a.13.13 0 0 0 0-.06.77.77 0 0 0 -.15-.46.65.65 0 0 0 -.15-.18.81.81 0 0 0 -.65-.2l-3.48.41a.87.87 0 0 0 -.42.17.76.76 0 0 0 -.23.3.87.87 0 0 0 -.12.46v4.6a.9.9 0 0 0 .09.4.25.25 0 0 0 0 .07.72.72 0 0 0 .17.22l.08.06a.71.71 0 0 0 .33.15h.34l3.41-.31a.94.94 0 0 0 .79-.92zm-.74 1.32c0 .1-.06.17-.11.17l-.66.06-2.85.26h-.07a.18.18 0 0 1 -.06-.14v-4.61c0-.1.06-.17.11-.17l3.54-.4a.2.2 0 0 1 .06.15v1.64z" />
</svg>