<svg viewBox="0 0 24 24" xmlns="http://www.w3.org/2000/svg">
    <g fill="none">
        <path
            d="m15.85 7.32-.55-1.09a2 2 0 0 0 -1.79-1.1h-3a2 2 0 0 0 -1.81 1.1l-.55 1.09a1 1 0 0 1 -.89.56h-1.51a2 2 0 0 0 -2 2v7a2 2 0 0 0 2 2h12.5a2 2 0 0 0 2-2v-7a2 2 0 0 0 -2-2h-1.51a1 1 0 0 1 -.89-.56z"
            stroke="#1a1a1a" stroke-linecap="round" stroke-linejoin="round" stroke-width="1.5" />
        <circle cx="12" cy="13.19" r="2.75" stroke="#1a1a1a" stroke-linecap="round"
            stroke-linejoin="round" stroke-width="1.5" />
        <path d="m0 0h24v24h-24z" />
    </g>
</svg>