<svg viewBox="0 0 28.01 21.49" xmlns="http://www.w3.org/2000/svg">
    <path
        d="m6.6 2.46a3.61 3.61 0 1 0 3.61 3.61 3.61 3.61 0 0 0 -3.61-3.61zm0 6.85a3.24 3.24 0 1 1 3.24-3.24 3.25 3.25 0 0 1 -3.24 3.24z"
        fill="#fff" />
    <path
        d="m6.6 2.08a4 4 0 1 0 4 4 4 4 0 0 0 -4-4zm0 7.23a3.24 3.24 0 1 1 3.24-3.24 3.25 3.25 0 0 1 -3.24 3.24z" />
    <path
        d="m12.39 15.67.37-.1a1.74 1.74 0 0 0 -.08-.36.58.58 0 0 0 0-.14 1.51 1.51 0 0 0 -.11-.22 6.63 6.63 0 0 0 -12 .22c-.57 1.29.24 5.84 1.65 5.84h8.43a.8.8 0 0 0 .47-.17h-.91a1.39 1.39 0 0 1 -.75-.21 1.41 1.41 0 0 1 -.46-.46 1.36 1.36 0 0 1 -.1-1.31 5.74 5.74 0 0 1 3.49-3.09zm-10.17 4.86c-.17 0-.37-.17-.57-.47a7.47 7.47 0 0 1 -.74-4.83 6.25 6.25 0 0 1 11.25-.23 6.45 6.45 0 0 0 -4 3.49 2.13 2.13 0 0 0 .15 2 .1.1 0 0 0 0 .05z"
        fill="#fff" />
    <path
        d="m13 15.13a1.72 1.72 0 0 0 -.07-.21l-.07-.15a7.11 7.11 0 0 0 -.72-1.19 6.57 6.57 0 0 0 -1.29-1.29 7 7 0 0 0 -10.63 2.63c-.51 1.13-.07 4.19.8 5.55a1.47 1.47 0 0 0 1.2.81h8.43a1.13 1.13 0 0 0 .58-.16 1.9 1.9 0 0 0 .44-.38h-1.46a1.39 1.39 0 0 1 -.75-.21h-7.24c-.17 0-.37-.17-.57-.47a7.47 7.47 0 0 1 -.74-4.83 6.25 6.25 0 0 1 11.25-.23c.05.09.09.18.13.27a.14.14 0 0 1 0 .07 1.2 1.2 0 0 1 .08.37l.37-.1.36-.08a1.35 1.35 0 0 0 -.1-.4z" />
    <path
        d="m25.18 4.65a0 0 0 0 0 0 0 3.54 3.54 0 0 0 -.6-1 4 4 0 0 0 -3.11-1.5 3.79 3.79 0 0 0 -1.26.21 1.53 1.53 0 0 0 -.27.11 3.85 3.85 0 0 0 -1.32.89 3.67 3.67 0 0 0 -.76 1.14s0 0 0 0a3.84 3.84 0 0 0 -.34 1.59v.44a4 4 0 0 0 8-.44v-.09a3.89 3.89 0 0 0 -.34-1.35zm-.48 1.42a3.24 3.24 0 0 1 -6.46.3 2.28 2.28 0 0 1 0-.26 1.77 1.77 0 0 1 0-.23 3.23 3.23 0 0 1 1.62-2.58l.25-.13a3.23 3.23 0 0 1 4.54 2.35 2 2 0 0 1 0 .26 2.11 2.11 0 0 1 0 .25z"
        fill="#1a1a1a" />
    <path
        d="m27.83 14.92a7 7 0 0 0 -10.5-2.76 6.85 6.85 0 0 0 -1.52 1.52 6.59 6.59 0 0 0 -.65 1.08 1.19 1.19 0 0 0 -.08.16 1.18 1.18 0 0 0 -.07.2 1.79 1.79 0 0 0 -.09.35 6.11 6.11 0 0 1 .74.17 1.58 1.58 0 0 1 .09-.36l.14-.3a6.24 6.24 0 0 1 11.23.3c.35.76-.09 3.37-.94 4.7-.25.38-.5.6-.7.6h-6.79a1.39 1.39 0 0 1 -.75.21h-1.86a1.66 1.66 0 0 0 .43.38 1.07 1.07 0 0 0 .57.16h8.43a1.67 1.67 0 0 0 1.33-1c.87-1.33 1.51-4.26.99-5.41z"
        fill="#1a1a1a" />
    <path
        d="m14.08 7.1a3.32 3.32 0 1 0 3.31 3.32 3.31 3.31 0 0 0 -3.31-3.32zm0 6.26a2.94 2.94 0 1 1 2.92-2.94 2.95 2.95 0 0 1 -2.92 2.94z"
        fill="#fff" />
    <path
        d="m14.08 6.73a3.7 3.7 0 0 0 -3.7 3.69 3.62 3.62 0 0 0 .51 1.87 3.71 3.71 0 0 0 1.29 1.29 3.59 3.59 0 0 0 1.9.53 3.64 3.64 0 0 0 1.73-.43 3.77 3.77 0 0 0 1.52-1.52 3.65 3.65 0 0 0 .44-1.74 3.69 3.69 0 0 0 -3.69-3.69zm-2.95 3.69a2.95 2.95 0 1 1 2.95 2.94 2.94 2.94 0 0 1 -2.95-2.94z"
        fill="#1a1a1a" />
    <path
        d="m19.61 18.6a6 6 0 0 0 -3.86-3.32 4.62 4.62 0 0 0 -.74-.15 4.73 4.73 0 0 0 -.93-.08 6 6 0 0 0 -1 .09 2.33 2.33 0 0 0 -.36.08 2.22 2.22 0 0 0 -.37.09 6.09 6.09 0 0 0 -3.77 3.3 1.72 1.72 0 0 0 .33 1.93 1.81 1.81 0 0 0 1.34.59h7.73a1.8 1.8 0 0 0 1.34-.59 1.72 1.72 0 0 0 .29-1.94zm-.44 1.47a1.41 1.41 0 0 1 -.48.46 1.39 1.39 0 0 1 -.75.21h-7.73a1.39 1.39 0 0 1 -.75-.21 1.41 1.41 0 0 1 -.46-.46 1.36 1.36 0 0 1 -.1-1.31 5.74 5.74 0 0 1 3.51-3.09l.37-.1.36-.08a6 6 0 0 1 1-.08 5.83 5.83 0 0 1 .84.06 6.11 6.11 0 0 1 .74.17 5.71 5.71 0 0 1 3.61 3.12 1.34 1.34 0 0 1 -.16 1.31z"
        fill="#fff" />
    <path
        d="m20 18.45a6.48 6.48 0 0 0 -4-3.52 4.55 4.55 0 0 0 -.75-.17 5.49 5.49 0 0 0 -1.08-.1 6.56 6.56 0 0 0 -1.18.11l-.38.08-.36.11a6.45 6.45 0 0 0 -4 3.49 2.13 2.13 0 0 0 .15 2 .1.1 0 0 0 0 .05 1.7 1.7 0 0 0 .33.38 2.27 2.27 0 0 0 .56.37 2.11 2.11 0 0 0 .93.21h7.73a2.15 2.15 0 0 0 .94-.21 2.13 2.13 0 0 0 .88-.75.1.1 0 0 0 0-.05 2.13 2.13 0 0 0 .23-2zm-1.26 2.08a1.39 1.39 0 0 1 -.75.21h-7.78a1.39 1.39 0 0 1 -.75-.21 1.41 1.41 0 0 1 -.46-.46 1.36 1.36 0 0 1 -.1-1.31 5.74 5.74 0 0 1 3.51-3.09l.37-.1.36-.08a6 6 0 0 1 1-.08 5.83 5.83 0 0 1 .84.06 6.11 6.11 0 0 1 .74.17 5.71 5.71 0 0 1 3.61 3.12 1.34 1.34 0 0 1 -.1 1.31 1.41 1.41 0 0 1 -.54.46z"
        fill="#1a1a1a" />
    <path
        d="m17.64 6.24s-.3-3 2.09-4.36a4.6 4.6 0 0 1 1.17-.45s4.31-.43 4.38 4.32c0 0-1.67.19-5.14-1.17a3.59 3.59 0 0 1 -2.5 1.66z"
        fill="#1a1a1a" />
    <path
        d="m25.53 5.74a4.6 4.6 0 0 0 -1.38-3.55 3.61 3.61 0 0 0 -.76-.51 1.51 1.51 0 0 0 -.29-.13 1.28 1.28 0 0 0 -.31-.11 4.74 4.74 0 0 0 -1.94-.24 3.93 3.93 0 0 0 -.71.23 1.69 1.69 0 0 0 -.31.13l-.21.11-.09.06c-2.4 1.41-2.14 4.42-2.13 4.55v.25h.07.18a3.38 3.38 0 0 0 .57-.12 3.84 3.84 0 0 0 2-1.48 14.82 14.82 0 0 0 4.48 1.07 3.29 3.29 0 0 0 .61 0h.23zm-.53-.24a3 3 0 0 1 -.39 0 15 15 0 0 1 -4.41-1.13l-.2-.1v.15a3.61 3.61 0 0 1 -1.7 1.38 2 2 0 0 1 -.35.11 5.12 5.12 0 0 1 .71-2.65 3.27 3.27 0 0 1 .86-.93 3.07 3.07 0 0 1 .4-.26.82.82 0 0 1 .13-.07 1.89 1.89 0 0 1 .46-.2.07.07 0 0 1 .06 0l.32-.1h.28a5 5 0 0 1 1.17.15 3.68 3.68 0 0 1 1.07.47 2.4 2.4 0 0 1 .37.28 3 3 0 0 1 .75 1 4.64 4.64 0 0 1 .47 1.9z"
        fill="#fff" />
    <path d="m19.73 2s.13-1.78 1.74-1.75a1.8 1.8 0 0 1 1.71 1.75 3.84 3.84 0 0 0 -3.45 0z"
        fill="#1a1a1a" />
    <path
        d="m23.45 2.29v-.31a1.27 1.27 0 0 0 0-.26 1.94 1.94 0 0 0 -1.97-1.72h-.05a2 2 0 0 0 -1.91 1.72v.26.02.32.18l.42-.29.06-.06a1.23 1.23 0 0 1 .34-.15 3.91 3.91 0 0 1 2.73.2l.39.19zm-3.31-.87a1.33 1.33 0 0 1 1.29-.92 1.36 1.36 0 0 1 1.32.93.61.61 0 0 1 .05.12 4.84 4.84 0 0 0 -1.51-.26 3.29 3.29 0 0 0 -1.24.24.54.54 0 0 1 .09-.11z"
        fill="#fff" />
    <path
        d="m17.64 6.24s-.3-3 2.09-4.36a4.6 4.6 0 0 1 1.17-.45s4.31-.43 4.38 4.32c0 0-1.67.19-5.14-1.17a3.59 3.59 0 0 1 -2.5 1.66z"
        fill="#1a1a1a" />
    <path d="m19.73 2s.13-1.78 1.74-1.75a1.8 1.8 0 0 1 1.71 1.75 3.84 3.84 0 0 0 -3.45 0z"
        fill="#1a1a1a" />
    <g fill="#fff">
        <path
            d="m20.14 4.92a.12.12 0 0 1 -.12-.1c-.06-.3-.57-3 .5-3.27a.12.12 0 0 1 .15.09.12.12 0 0 1 -.08.15c-.72.21-.48 2.22-.33 3a.12.12 0 0 1 -.1.15z" />
        <path
            d="m19.73 2a.11.11 0 0 1 -.11-.07.12.12 0 0 1 .06-.16 5.54 5.54 0 0 1 3.53 0 .13.13 0 0 1 .09.15.12.12 0 0 1 -.15.09 5.66 5.66 0 0 0 -3.37 0z" />
    </g>
</svg>